<svg width="100px" height="100px" viewBox="0 0 1024 1024" xmlns="http://www.w3.org/2000/svg">

<g transform="translate(0.000000,1024.000000) scale(0.100000,-0.100000)"
fill="#1465bb" stroke="none">
<path d="M3085 7883 c-526 -28 -1067 -137 -1366 -275 -188 -87 -335 -213 -381
-325 l-23 -58 0 -1920 0 -1920 33 -68 c106 -216 413 -368 972 -481 289 -58
526 -83 895 -92 462 -12 926 22 1257 92 l26 6 4 -194 c4 -172 7 -199 27 -251
45 -115 147 -208 266 -242 44 -13 305 -15 1985 -13 l1935 3 58 27 c79 37 128
78 170 141 72 109 68 -40 65 1978 l-3 1814 -31 60 c-39 74 -116 148 -192 183
l-57 27 -402 3 c-222 2 -403 6 -403 10 0 4 170 177 377 384 l378 378 51 -6
c101 -12 213 48 258 138 30 60 35 156 13 211 -36 84 -122 146 -216 154 -112
10 -208 -43 -257 -143 -24 -49 -26 -63 -21 -128 l5 -73 -389 -389 c-269 -268
-395 -388 -407 -385 -9 2 -55 4 -102 5 -69 1 -93 -3 -125 -20 l-41 -21 -314
213 c-173 118 -318 214 -321 214 -3 0 -9 25 -12 55 -14 142 -128 233 -275 223
-76 -6 -111 -21 -161 -70 -50 -49 -71 -101 -71 -182 l0 -69 -247 -249 -247
-248 -142 0 -143 0 -3 423 c-4 477 -2 470 -88 583 -159 211 -689 399 -1316
468 -274 30 -743 44 -1019 29z m840 -253 c413 -37 777 -114 1033 -220 125 -51
195 -95 253 -158 43 -47 49 -59 49 -96 0 -159 -342 -326 -860 -420 -324 -59
-639 -80 -1084 -73 -557 9 -941 64 -1319 188 -290 95 -437 202 -437 319 0 42
74 120 156 166 257 143 791 266 1324 304 156 11 724 5 885 -10z m-2310 -876
c214 -137 606 -242 1135 -305 165 -20 235 -23 660 -23 516 -1 664 8 975 60
343 58 662 164 847 280 l38 24 0 -204 0 -205 -237 -3 c-234 -3 -239 -3 -296
-30 -114 -54 -204 -167 -227 -287 -5 -29 -10 -160 -10 -291 l0 -237 -52 -11
c-306 -66 -733 -98 -1173 -89 -330 7 -520 24 -785 68 -481 80 -816 208 -901
346 l-24 38 -5 453 c-3 248 -4 452 -3 452 2 0 28 -16 58 -36z m5343 -194 c138
-91 251 -168 251 -172 1 -5 -244 -8 -544 -8 -300 0 -545 1 -545 3 0 2 72 75
161 163 105 104 166 158 177 155 50 -11 169 -4 197 12 17 9 35 15 41 14 6 -1
124 -76 262 -167z m452 -447 c52 -54 112 -78 195 -77 58 0 79 5 123 29 30 16
64 42 77 57 l24 28 410 0 c266 0 420 -4 438 -11 36 -13 71 -46 90 -84 14 -26
16 -217 14 -1794 -2 -1717 -3 -1765 -21 -1802 -11 -20 -34 -48 -52 -61 l-33
-23 -1895 -3 c-1311 -2 -1906 0 -1932 8 -44 13 -93 66 -107 117 -15 52 -15
3473 -1 3525 13 47 55 97 95 114 24 11 264 13 1285 14 l1255 0 35 -37z m-5795
-593 c173 -119 630 -241 1100 -295 304 -34 698 -43 1070 -25 260 13 466 39
683 86 l32 7 0 -491 0 -491 -38 -10 c-136 -35 -495 -76 -802 -92 -964 -48
-1960 163 -2088 444 -18 40 -19 62 -14 470 2 235 6 427 9 427 2 0 24 -14 48
-30z m130 -1292 c147 -65 403 -139 600 -174 363 -65 621 -87 1020 -88 403 0
635 17 990 75 66 10 126 19 133 19 9 0 12 -104 12 -488 l0 -489 -52 -11 c-250
-55 -545 -82 -948 -89 -557 -9 -919 27 -1337 132 -342 87 -542 191 -592 308
-17 39 -18 71 -13 474 l5 431 51 -33 c28 -18 87 -48 131 -67z"/>
<path d="M6724 5741 c-18 -11 -36 -25 -40 -33 -5 -7 -11 -179 -14 -383 l-5
-370 -100 -2 c-55 -2 -110 -5 -122 -8 -60 -14 -82 -91 -40 -140 28 -33 81 -46
182 -44 l80 2 0 -239 0 -239 -107 -5 c-95 -4 -110 -8 -130 -28 l-23 -23 -5
-649 -5 -650 -185 -2 -185 -3 -5 743 -5 744 -29 24 -28 25 -304 -3 -304 -3
-27 -28 -28 -27 -3 -734 -4 -734 -90 -4 c-87 -3 -91 -4 -119 -36 -38 -43 -41
-107 -5 -149 l24 -28 1634 -5 c898 -3 1648 -1 1666 3 60 15 89 94 57 156 -20
41 -67 56 -158 54 l-77 -2 2 921 3 921 101 -2 c144 -3 204 27 204 102 0 76
-42 97 -195 97 l-115 0 0 180 c0 192 -9 238 -48 259 -14 7 -124 11 -317 11
l-296 0 -24 -25 c-19 -18 -25 -35 -26 -72 -1 -26 -2 -52 -4 -58 -1 -5 -3 -73
-3 -151 l-2 -141 -87 -7 c-102 -8 -129 -22 -139 -72 -14 -77 27 -112 145 -121
l81 -6 2 -873 c1 -481 2 -892 3 -914 l0 -40 -187 -4 -188 -4 0 650 0 650 -29
29 c-28 28 -33 29 -125 29 l-96 0 0 240 0 240 83 1 c107 0 147 14 171 60 22
40 17 78 -14 109 -18 18 -34 20 -131 20 l-110 0 2 368 c2 397 2 400 -51 427
-39 20 -69 19 -106 -4z"/>
<path d="M5018 4937 c-51 -48 -44 -121 14 -157 40 -24 179 -28 231 -6 56 23
83 87 57 137 -20 37 -63 49 -173 49 -95 0 -106 -2 -129 -23z"/>
<path d="M5495 4946 c-59 -26 -71 -97 -26 -148 27 -30 32 -32 118 -36 136 -6
188 17 200 90 4 29 0 41 -25 69 l-30 34 -104 3 c-70 1 -113 -2 -133 -12z"/>
<path d="M5963 4953 c-32 -6 -63 -50 -63 -88 0 -43 32 -82 78 -95 53 -14 177
-12 216 4 84 35 90 138 11 172 -33 13 -186 18 -242 7z"/>
</g>
</svg>