<svg width="100px" height="100px" viewBox="0 0 1024 1024" xmlns="http://www.w3.org/2000/svg">

<g transform="translate(0.000000,1024.000000) scale(0.100000,-0.100000)"
fill="#1465bb" stroke="none">
<path d="M2770 9243 c-236 -25 -508 -117 -740 -251 -415 -240 -736 -667 -855
-1139 -48 -192 -61 -511 -30 -731 74 -512 383 -992 821 -1275 177 -115 450
-225 647 -261 216 -41 517 -39 730 4 437 89 861 355 1118 702 302 407 416 959
308 1493 -77 383 -300 758 -600 1010 -362 304 -781 459 -1227 453 -75 0 -153
-3 -172 -5z m490 -229 c226 -36 453 -128 640 -261 131 -94 350 -314 425 -428
76 -116 166 -291 199 -391 60 -180 77 -286 83 -495 7 -267 -12 -415 -79 -614
-31 -91 -109 -242 -178 -345 -55 -83 -63 -90 -78 -77 -50 41 -456 401 -642
567 -118 106 -295 263 -392 349 l-177 156 -1 781 0 781 53 -4 c28 -2 95 -11
147 -19z m-398 -776 l3 -793 29 -52 c22 -39 81 -99 245 -245 118 -106 295
-265 391 -353 96 -88 273 -247 393 -354 119 -106 217 -197 217 -201 0 -12
-113 -113 -195 -175 -88 -67 -266 -166 -368 -206 -262 -101 -577 -134 -839
-89 -122 21 -320 80 -446 134 -222 95 -491 307 -633 498 -169 228 -282 476
-325 713 -27 150 -25 444 4 581 31 143 74 269 142 411 117 246 279 438 518
616 222 165 412 248 662 287 41 6 82 13 90 15 8 1 36 3 62 4 l48 1 2 -792z"/>
<path d="M5593 8955 c-17 -7 -36 -22 -41 -32 -6 -11 -11 -637 -14 -1648 -4
-1342 -3 -1635 8 -1656 7 -15 28 -32 45 -38 23 -8 536 -11 1815 -11 1754 0
1784 0 1803 19 26 26 36 84 21 120 -17 41 -55 54 -147 50 l-78 -4 4 830 c2
576 0 838 -7 857 -21 53 -49 58 -301 58 -229 0 -230 0 -258 -24 l-28 -24 -3
-846 -2 -846 -104 0 -104 0 -4 378 c-3 329 -5 381 -20 408 -27 50 -49 54 -283
54 -212 0 -214 0 -242 -24 l-28 -24 -3 -396 -3 -396 -114 0 -115 0 0 483 c0
537 1 527 -69 574 -41 28 -65 29 -122 4 -30 -13 -82 -21 -159 -26 -127 -8
-176 -25 -200 -71 -13 -23 -15 -103 -15 -495 l0 -468 -100 -3 c-55 -2 -103 -2
-107 0 -5 2 -8 129 -8 283 l0 281 -28 28 c-27 26 -34 28 -153 35 -68 4 -174 5
-234 1 -107 -5 -111 -6 -137 -36 l-28 -30 0 -280 0 -280 -145 0 -145 0 0 1571
c0 1058 -3 1577 -10 1590 -12 22 -61 49 -87 49 -10 -1 -32 -7 -50 -15z m3237
-2420 l0 -775 -120 0 -120 0 0 768 c0 423 3 771 6 774 3 4 57 7 120 7 l114 1
0 -775z m-1620 -345 l0 -430 -100 0 -100 0 0 430 0 430 100 0 100 0 0 -430z
m810 -100 l0 -330 -110 0 -110 0 0 330 0 330 110 0 110 0 0 -330z m-1583 -112
c-2 -258 12 -234 -134 -223 l-93 7 0 219 0 219 114 0 115 0 -2 -222z"/>
<path d="M8781 8829 c-123 -24 -203 -152 -181 -293 8 -52 35 -12 -316 -468
-101 -131 -235 -310 -300 -398 -64 -88 -120 -160 -123 -159 -3 0 -149 109
-325 242 l-319 242 -3 43 c-19 212 -303 275 -394 87 -18 -38 -22 -58 -18 -116
l4 -71 -197 -221 c-108 -122 -248 -280 -311 -352 l-114 -130 -55 -5 c-84 -9
-118 -35 -139 -111 -23 -80 45 -181 132 -194 88 -13 177 53 178 131 1 30 129
181 508 599 l145 160 76 11 76 12 80 -61 c44 -34 185 -146 314 -250 267 -216
290 -233 339 -247 53 -14 91 9 161 98 276 354 535 683 642 818 l128 160 62 12
c78 14 144 54 183 110 24 34 31 56 34 106 5 78 -8 121 -53 174 -51 58 -134 86
-214 71z"/>
<path d="M6563 5095 c-283 -51 -571 -228 -743 -457 -168 -223 -241 -444 -242
-728 0 -269 67 -482 220 -700 l59 -85 -618 -620 c-340 -341 -632 -639 -649
-661 -91 -125 -79 -284 31 -392 84 -82 192 -110 304 -78 70 21 48 1 705 645
261 257 538 528 616 604 l141 137 39 -13 c82 -29 182 -42 324 -42 155 0 237
12 366 50 45 14 85 25 88 25 3 0 6 -286 6 -635 l0 -635 -140 0 -140 0 0 366
c0 231 -4 372 -10 385 -25 46 -51 49 -365 49 -329 0 -351 -3 -381 -61 -14 -29
-17 -76 -18 -383 l-1 -351 -118 0 c-117 0 -119 0 -143 -28 -50 -59 -22 -147
49 -147 2532 -3 3209 0 3236 15 35 17 45 44 37 91 -9 47 -39 64 -109 64 l-58
0 7 1508 c4 1079 3 1515 -5 1534 -6 16 -25 37 -43 48 -31 19 -51 20 -366 20
-220 0 -340 -4 -354 -11 -50 -27 -48 31 -48 -1589 l0 -1510 -125 0 -125 0 0
683 c0 440 -4 695 -10 719 -7 24 -24 48 -47 65 -36 28 -38 28 -210 31 l-174 3
64 72 c179 202 271 391 313 645 21 129 14 343 -15 461 -71 283 -245 533 -494
710 -84 59 -265 146 -357 170 -152 41 -356 52 -497 26z m392 -204 c178 -37
337 -119 466 -239 104 -97 169 -185 229 -307 82 -167 114 -361 91 -555 -29
-243 -111 -415 -278 -586 -125 -129 -271 -215 -458 -270 -73 -21 -117 -27
-230 -31 -126 -4 -150 -2 -238 21 -119 31 -286 108 -376 175 -153 113 -276
277 -340 453 -46 125 -55 178 -55 338 0 136 3 167 26 252 124 459 508 763 968
767 66 0 138 -6 195 -18z m1925 -1926 l0 -1455 -225 0 -225 0 0 1455 0 1455
225 0 225 0 0 -1455z m-2827 -24 c29 -21 74 -51 101 -66 l49 -28 -649 -643
c-528 -523 -655 -644 -682 -650 -72 -14 -152 36 -152 95 1 66 34 103 566 626
291 286 570 561 619 611 50 50 91 92 93 92 2 1 26 -15 55 -37z m1757 -766 l0
-665 -215 0 -215 0 0 665 0 665 215 0 215 0 0 -665z m-1060 -360 l0 -305 -215
0 -215 0 0 305 0 305 215 0 215 0 0 -305z"/>
<path d="M6970 4288 c-31 -16 -52 -36 -68 -65 -22 -41 -22 -43 -29 -602 -5
-467 -4 -561 7 -561 8 0 47 9 87 21 247 69 436 206 493 357 19 49 20 78 20
390 0 306 -2 341 -19 377 -21 46 -54 79 -94 94 -16 6 -100 11 -191 11 -148 0
-166 -2 -206 -22z"/>
<path d="M6163 3755 c-17 -7 -36 -22 -41 -32 -5 -10 -12 -86 -16 -170 -8 -168
-3 -191 55 -264 87 -110 343 -229 493 -229 l36 0 0 314 c0 308 0 314 -22 346
-13 19 -36 37 -53 42 -51 14 -416 8 -452 -7z"/>
<path d="M1516 4979 c-177 -42 -332 -202 -381 -394 -23 -89 -23 -1831 0 -1920
26 -100 63 -165 139 -241 115 -115 217 -154 402 -154 l94 0 0 -277 c0 -166 4
-293 11 -316 6 -22 25 -55 43 -74 28 -31 40 -37 87 -40 40 -4 70 1 113 17 64
24 139 90 576 504 l195 185 780 1 c860 0 850 0 969 63 123 65 226 201 255 335
8 37 11 328 11 970 0 994 1 963 -56 1079 -34 70 -131 174 -197 212 -115 65
-17 61 -1581 60 -816 -1 -1438 -5 -1460 -10z m2860 -189 c97 -20 185 -100 220
-200 10 -27 13 -239 13 -960 l1 -925 -24 -51 c-28 -61 -83 -124 -134 -156
l-37 -23 -830 -5 -830 -5 -50 -27 c-30 -16 -135 -108 -263 -230 -118 -111
-273 -258 -345 -325 l-132 -121 -5 329 c-5 325 -5 329 -28 351 -21 22 -32 23
-210 28 -156 4 -193 8 -221 23 -54 30 -121 97 -149 152 l-27 50 -3 914 c-3
1036 -7 980 74 1070 60 66 124 103 201 116 85 14 2709 9 2779 -5z"/>
<path d="M2890 3911 c-50 -15 -86 -40 -132 -89 -191 -204 23 -530 297 -452 70
19 155 104 180 179 22 67 16 159 -13 218 -58 112 -214 180 -332 144z"/>
<path d="M1957 3894 c-30 -9 -65 -31 -91 -57 -146 -147 -111 -374 71 -463 176
-86 366 33 381 238 14 200 -169 344 -361 282z"/>
<path d="M3805 3889 c-32 -12 -92 -54 -113 -79 -7 -8 -25 -40 -40 -70 -52
-110 -28 -243 60 -327 100 -96 254 -97 362 -2 65 57 91 117 90 209 0 118 -49
201 -148 252 -48 25 -164 34 -211 17z"/>
</g>
</svg>