<svg width="100px" height="100px" viewBox="0 0 1024 1024" xmlns="http://www.w3.org/2000/svg">

<g transform="translate(0.000000,1024.000000) scale(0.100000,-0.100000)"
fill="#1465bb" stroke="none">
<path d="M1965 8695 c-334 -62 -612 -331 -679 -657 -14 -69 -16 -361 -16
-2912 0 -3087 -3 -2904 56 -3052 89 -224 257 -390 486 -480 144 -57 -15 -54
3355 -52 l3098 3 76 22 c293 83 501 284 600 578 l24 70 3 2883 c2 3153 6 2926
-54 3081 -62 157 -210 327 -361 416 -84 49 -195 88 -295 105 -42 6 -1093 10
-3143 9 -2486 -1 -3094 -3 -3150 -14z m6345 -262 c204 -70 360 -241 405 -445
14 -66 15 -342 13 -2898 l-3 -2825 -26 -67 c-40 -102 -87 -173 -159 -241 -79
-75 -162 -121 -266 -147 -76 -20 -122 -20 -3148 -20 -3389 0 -3138 -5 -3282
64 -102 49 -210 153 -263 255 -77 148 -71 -114 -71 3016 0 3113 -6 2859 66
3001 78 156 235 281 394 313 30 6 64 13 75 15 11 2 1411 3 3110 2 l3090 -1 65
-22z"/>
<path d="M5935 7896 c-137 -34 -241 -133 -279 -267 -15 -50 -16 -164 -14
-1080 l3 -1024 31 -65 c57 -120 164 -200 295 -221 40 -6 440 -9 1074 -7 l1010
3 58 22 c117 44 207 139 241 252 14 49 16 164 16 1061 0 1108 2 1061 -62 1162
-54 86 -141 144 -246 167 -79 17 -2058 14 -2127 -3z m2098 -250 c18 -7 45 -28
60 -45 l27 -33 0 -991 c0 -773 -3 -997 -13 -1017 -7 -13 -28 -35 -46 -47 l-34
-23 -1022 0 -1022 0 -34 23 c-18 12 -39 34 -46 47 -10 20 -13 243 -13 1013 0
1103 -5 1028 72 1066 43 21 44 21 1041 21 820 0 1003 -2 1030 -14z"/>
<path d="M6948 7394 c-56 -30 -58 -45 -58 -384 l0 -310 -312 0 c-342 0 -346
-1 -385 -59 -42 -62 -19 -140 51 -172 37 -17 71 -19 344 -19 l302 0 0 -300 c0
-332 2 -345 62 -376 66 -34 148 2 168 75 5 20 10 162 10 318 l0 282 309 3
c295 3 311 4 338 24 15 11 36 37 46 57 17 33 17 42 5 79 -9 28 -24 50 -47 65
-34 23 -38 23 -342 23 l-309 0 -1 298 c0 203 -4 308 -12 332 -23 66 -107 98
-169 64z"/>
<path d="M3470 7569 c-354 -41 -673 -272 -830 -601 -232 -488 -67 -1069 386
-1364 355 -232 810 -231 1162 3 316 210 497 563 479 937 -13 280 -122 529
-314 719 -180 178 -389 279 -636 306 -107 12 -139 12 -247 0z m340 -270 c98
-25 239 -95 317 -159 127 -103 230 -267 274 -435 28 -106 30 -289 5 -390 -75
-295 -295 -524 -583 -607 -113 -33 -324 -33 -437 0 -123 35 -245 103 -332 185
-124 115 -192 224 -241 384 -23 77 -27 106 -27 228 -1 117 3 153 22 218 109
379 453 624 842 600 47 -3 119 -14 160 -24z"/>
<path d="M3130 5229 c-666 -86 -1152 -531 -1292 -1185 -22 -106 -23 -122 -23
-619 l0 -510 23 -58 c47 -115 168 -214 293 -237 77 -15 2882 -13 2951 1 122
26 210 95 265 207 l38 76 0 525 c0 506 -1 530 -22 624 -111 488 -403 855 -838
1050 -145 65 -269 99 -445 123 -118 15 -834 18 -950 3z m965 -254 c282 -43
518 -165 711 -368 151 -160 244 -325 305 -547 23 -83 23 -96 26 -595 3 -487 3
-511 -16 -541 -34 -55 -69 -64 -260 -64 l-171 0 0 394 c0 384 -1 394 -21 420
-23 29 -68 56 -94 56 -31 0 -81 -30 -98 -59 -15 -26 -17 -69 -17 -420 l0 -391
-860 0 -860 0 0 380 c0 414 -2 429 -55 464 -36 23 -96 24 -131 2 -52 -35 -54
-53 -54 -466 l0 -380 -168 0 c-189 0 -220 9 -257 71 -19 33 -20 51 -19 499 0
397 3 478 17 552 104 528 490 904 1017 993 116 20 874 20 1005 0z"/>
<path d="M5930 4976 c-117 -33 -195 -97 -247 -204 l-38 -76 0 -1045 0 -1046
32 -67 c38 -81 102 -146 181 -185 l57 -28 1077 -3 c1071 -2 1077 -2 1132 19
112 41 197 134 230 250 15 49 16 165 14 1080 l-3 1024 -22 55 c-35 84 -100
153 -190 197 l-77 38 -1050 2 c-822 1 -1061 -1 -1096 -11z m2117 -253 c20 -9
44 -30 54 -47 18 -30 19 -70 19 -1030 l0 -998 -39 -39 -39 -39 -1037 0 -1037
0 -39 39 -39 39 0 998 c0 984 0 999 20 1032 39 64 -15 61 1093 62 922 0 1012
-1 1044 -17z"/>
<path d="M6243 3775 c-94 -41 -92 -181 2 -221 29 -12 157 -14 761 -14 642 0
730 2 759 16 93 44 91 182 -2 220 -49 21 -1473 20 -1520 -1z"/>
</g>
</svg>